<svg width="727" height="616" viewBox="0 0 727 616" fill="none" xmlns="http://www.w3.org/2000/svg">
<path fill-rule="evenodd" clip-rule="evenodd" d="M358.616 237.952L249.072 347.456C244.345 352.181 236.682 352.181 231.955 347.456L127.545 243.085C122.818 238.36 122.818 230.7 127.545 225.975L350.058 3.54361C354.785 -1.18121 362.448 -1.1812 367.175 3.54362L471.585 107.915C471.861 108.191 472.121 108.477 472.364 108.771L588.411 223.597C593.162 228.298 593.201 235.958 588.499 240.707L484.622 345.61C479.92 350.359 472.257 350.398 467.506 345.697L358.616 237.952ZM153.22 234.53L358.617 29.2088L445.619 116.179L388.732 173.627L240.513 321.791L153.22 234.53ZM405.895 190.691L375.887 220.995L475.933 319.989L562.781 232.283L463.028 133.58L405.895 190.691Z" fill="#3CEEFA"/>
<path d="M0.600098 572V432H22.2001V572H0.600098ZM10.2001 512.4V491.6H82.4001V512.4H10.2001ZM10.2001 452.8V432H91.4001V452.8H10.2001Z" fill="#434343"/>
<path d="M113.955 572V467H134.755V500L132.755 492C134.221 486.933 136.688 482.333 140.155 478.2C143.755 474.067 147.821 470.8 152.355 468.4C157.021 466 161.821 464.8 166.755 464.8C169.021 464.8 171.155 465 173.155 465.4C175.288 465.8 176.955 466.267 178.155 466.8L172.755 489.2C171.155 488.533 169.355 488 167.355 487.6C165.488 487.067 163.621 486.8 161.755 486.8C158.155 486.8 154.688 487.533 151.355 489C148.155 490.333 145.288 492.267 142.755 494.8C140.355 497.2 138.421 500.067 136.955 503.4C135.488 506.6 134.755 510.133 134.755 514V572H113.955Z" fill="#434343"/>
<path d="M239.127 574C228.327 574 218.727 571.733 210.327 567.2C202.06 562.533 195.527 556.2 190.727 548.2C186.06 540.2 183.727 531 183.727 520.6C183.727 512.333 185.06 504.8 187.727 498C190.393 491.2 194.06 485.333 198.727 480.4C203.527 475.333 209.193 471.467 215.727 468.8C222.393 466 229.593 464.6 237.327 464.6C244.127 464.6 250.46 465.933 256.327 468.6C262.193 471.133 267.26 474.667 271.527 479.2C275.927 483.733 279.26 489.133 281.527 495.4C283.927 501.533 285.06 508.267 284.927 515.6L284.727 524.4H198.927L194.327 508H266.927L263.927 511.4V506.6C263.527 502.2 262.06 498.267 259.527 494.8C256.993 491.333 253.793 488.6 249.927 486.6C246.06 484.6 241.86 483.6 237.327 483.6C230.127 483.6 224.06 485 219.127 487.8C214.193 490.467 210.46 494.467 207.927 499.8C205.393 505 204.127 511.467 204.127 519.2C204.127 526.533 205.66 532.933 208.727 538.4C211.793 543.733 216.127 547.867 221.727 550.8C227.327 553.733 233.793 555.2 241.127 555.2C246.327 555.2 251.127 554.333 255.527 552.6C260.06 550.867 264.927 547.733 270.127 543.2L280.527 557.8C277.327 561 273.393 563.8 268.727 566.2C264.193 568.6 259.327 570.533 254.127 572C249.06 573.333 244.06 574 239.127 574Z" fill="#434343"/>
<path d="M356.314 574C345.514 574 335.914 571.733 327.514 567.2C319.247 562.533 312.714 556.2 307.914 548.2C303.247 540.2 300.914 531 300.914 520.6C300.914 512.333 302.247 504.8 304.914 498C307.581 491.2 311.247 485.333 315.914 480.4C320.714 475.333 326.381 471.467 332.914 468.8C339.581 466 346.781 464.6 354.514 464.6C361.314 464.6 367.647 465.933 373.514 468.6C379.381 471.133 384.448 474.667 388.714 479.2C393.114 483.733 396.448 489.133 398.714 495.4C401.114 501.533 402.248 508.267 402.114 515.6L401.914 524.4H316.114L311.514 508H384.114L381.114 511.4V506.6C380.714 502.2 379.248 498.267 376.714 494.8C374.181 491.333 370.981 488.6 367.114 486.6C363.247 484.6 359.047 483.6 354.514 483.6C347.314 483.6 341.247 485 336.314 487.8C331.381 490.467 327.647 494.467 325.114 499.8C322.581 505 321.314 511.467 321.314 519.2C321.314 526.533 322.847 532.933 325.914 538.4C328.981 543.733 333.314 547.867 338.914 550.8C344.514 553.733 350.981 555.2 358.314 555.2C363.514 555.2 368.314 554.333 372.714 552.6C377.248 550.867 382.114 547.733 387.314 543.2L397.714 557.8C394.514 561 390.581 563.8 385.914 566.2C381.381 568.6 376.514 570.533 371.314 572C366.247 573.333 361.247 574 356.314 574Z" fill="#434343"/>
<path d="M424.902 572V424H445.502V572H424.902Z" fill="#434343"/>
<path d="M534.297 573.2C523.497 573.2 513.83 570.867 505.297 566.2C496.764 561.4 490.03 554.867 485.097 546.6C480.297 538.2 477.897 528.733 477.897 518.2V431.8H499.497V516.4C499.497 523.2 501.097 529.333 504.297 534.8C507.497 540.133 511.697 544.4 516.897 547.6C522.23 550.8 528.03 552.4 534.297 552.4C540.964 552.4 546.964 550.8 552.297 547.6C557.764 544.4 562.097 540.133 565.297 534.8C568.497 529.333 570.097 523.2 570.097 516.4V431.8H590.697V518.2C590.697 528.733 588.23 538.2 583.297 546.6C578.497 554.867 571.83 561.4 563.297 566.2C554.764 570.867 545.097 573.2 534.297 573.2Z" fill="#434343"/>
<path d="M622.744 616V467H643.544V491L640.344 489.2C641.144 485.2 643.411 481.4 647.144 477.8C650.877 474.067 655.411 471.067 660.744 468.8C666.21 466.4 671.81 465.2 677.544 465.2C687.01 465.2 695.411 467.533 702.744 472.2C710.077 476.867 715.877 483.267 720.144 491.4C724.411 499.533 726.544 508.867 726.544 519.4C726.544 529.8 724.411 539.133 720.144 547.4C716.011 555.533 710.277 562 702.944 566.8C695.611 571.467 687.344 573.8 678.144 573.8C672.011 573.8 666.077 572.6 660.344 570.2C654.611 567.667 649.744 564.467 645.744 560.6C641.744 556.733 639.277 552.733 638.344 548.6L643.544 545.8V616H622.744ZM674.744 554.8C680.877 554.8 686.344 553.267 691.144 550.2C695.944 547.133 699.744 542.933 702.544 537.6C705.344 532.267 706.744 526.2 706.744 519.4C706.744 512.6 705.344 506.6 702.544 501.4C699.877 496.067 696.144 491.867 691.344 488.8C686.544 485.733 681.011 484.2 674.744 484.2C668.477 484.2 662.944 485.733 658.144 488.8C653.344 491.733 649.544 495.867 646.744 501.2C643.944 506.533 642.544 512.6 642.544 519.4C642.544 526.2 643.944 532.267 646.744 537.6C649.544 542.933 653.344 547.133 658.144 550.2C662.944 553.267 668.477 554.8 674.744 554.8Z" fill="#434343"/>
</svg>
